<svg width="167" height="75" viewBox="0 0 167 75" fill="none" xmlns="http://www.w3.org/2000/svg">
<g clip-path="url(#clip0_255_203)">
<path d="M9.32541 55.0931V50.9727H12.0881V55.0931H21.6146V72.2808C21.6146 73.2503 21.35 73.9353 20.8207 74.3147C20.3868 74.6308 19.6458 74.7994 18.5767 74.7994C16.7455 74.7994 15.2424 74.7573 14.0463 74.6624L13.5383 72.0279C15.3906 72.1438 16.936 72.1965 18.1745 72.1965C18.5026 72.1965 18.7037 72.1227 18.7567 71.9647C18.799 71.8698 18.8202 71.7117 18.8202 71.4904V57.6117H12.0669V57.8014C12.014 58.4653 11.9293 59.1503 11.8023 59.8563C14.258 61.8586 16.4491 64.1137 18.3756 66.6218L16.2692 68.5714C14.8931 66.5902 13.1678 64.5247 11.0931 62.3855C10.024 65.1781 7.87526 67.507 4.65741 69.3723L3.01673 67.2014C4.94321 66.0949 6.3616 64.9252 7.2825 63.6711C8.48919 62.0272 9.15605 60.0039 9.28307 57.6222H2.79445V74.9996H0V55.0931H9.32541Z" fill="#323333"/>
<path d="M50.0461 52.7859V74.3364H47.2834V72.566H31.7234V74.3048H28.9607V52.7754H50.0461V52.7859ZM31.7234 55.2729V61.1848H38.0744V55.2729H31.7234ZM31.7234 63.6191V70.0158H38.0744V63.6191H31.7234ZM47.2728 61.1848V55.2729H40.763V61.1848H47.2728ZM47.2728 70.0158V63.6191H40.763V70.0158H47.2728Z" fill="#323333"/>
<path d="M68.8662 54.6931C69.1308 54.2927 69.3213 53.9765 69.4484 53.7552C68.411 53.8395 67.162 53.9133 65.7224 53.987L64.7804 52.1113C69.2896 51.9743 73.2272 51.5527 76.5932 50.8467L78.3715 52.5855C76.3604 52.9859 74.2751 53.3021 72.1158 53.5128C71.9464 53.9027 71.7347 54.2927 71.5124 54.6826H80.2874V56.611H76.1275C77.4295 57.7176 78.9431 58.6238 80.6579 59.3299L79.3665 61.1846C78.4668 60.7525 77.5565 60.2256 76.6462 59.5828V62.8812H67.0667V59.7198C66.2517 60.3415 65.4155 60.8895 64.5369 61.3848L63.1079 59.6144C64.7274 58.8241 66.1352 57.8229 67.3208 56.611H63.7324V58.5501H61.7848V60.7631C62.7904 61.6483 63.6583 62.5229 64.3887 63.4082L63.0973 65.5369C62.6739 64.894 62.2399 64.2617 61.7848 63.6505V75.0107H59.3926V63.3238C58.694 65.8635 57.8789 68.0133 56.9474 69.7943L55.7831 67.107C57.3179 64.3987 58.4293 61.5534 59.0962 58.5606H56.1959V56.2106H59.3926V50.9731H61.7848V56.2106H63.5313V54.6931H68.8556H68.8662ZM79.6629 64.051V72.903C79.6629 73.5985 79.5041 74.0833 79.176 74.3678C78.8584 74.6524 78.308 74.7894 77.5141 74.7894C76.7203 74.7894 75.8417 74.7472 74.8679 74.6629L74.4657 72.5342C75.3971 72.6501 76.1169 72.7028 76.6462 72.7028C76.9214 72.7028 77.0907 72.6396 77.1543 72.5026C77.2072 72.4077 77.2283 72.2497 77.2283 72.0494V65.9162H66.5163V74.9896H64.1876V64.0404H79.6523L79.6629 64.051ZM75.4289 67.0649V71.9967H70.2952V73.3878H68.0829V67.0649H75.4289ZM69.0461 57.9283H74.6456C74.1693 57.4646 73.767 57.0326 73.4283 56.6216H70.1893C69.7765 57.1274 69.3954 57.57 69.0461 57.9283ZM74.3598 59.6144H69.3002V61.2057H74.3598V59.6144ZM70.2846 68.8037V70.2263H73.2166V68.8037H70.2846Z" fill="#323333"/>
<path d="M106.03 64.4831H101.203C99.9332 64.4831 99.2981 63.8614 99.2981 62.6284V60.31H96.5672C96.3978 62.5125 95.2441 64.1459 93.1271 65.2103H102.929V71.7545H95.4346V73.0506H92.9153V65.3156C92.3861 65.558 91.8251 65.7688 91.2429 65.969L89.8139 64.1986V74.9897H87.1465V58.2656H92.5343C92.1744 57.3067 91.7616 56.3793 91.2958 55.473H85.8657V53.2705H96.4825V50.9521H99.2029V53.2705H110V55.473H104.538C104.104 56.4952 103.649 57.4226 103.151 58.2656H108.708V72.5764C108.708 73.3879 108.518 73.978 108.126 74.3258C107.745 74.6841 107.004 74.8527 105.903 74.8527C104.802 74.8527 103.627 74.8211 102.484 74.7578L101.923 72.2919C103.395 72.4289 104.527 72.5027 105.31 72.5027C105.681 72.5027 105.903 72.4184 105.977 72.2392C106.02 72.1444 106.041 72.0179 106.041 71.8282V64.4515L106.03 64.4831ZM94.0585 60.31H89.8139V64.0195C90.9571 63.7349 91.8357 63.3766 92.4708 62.9235C93.3387 62.3017 93.868 61.4271 94.0585 60.3206V60.31ZM94.1961 55.4941C94.7042 56.5163 95.0959 57.4437 95.3817 58.2867H100.283C100.685 57.5385 101.087 56.6849 101.468 55.747L101.563 55.5046H94.1856L94.1961 55.4941ZM95.4346 67.1387V69.7838H100.388V67.1387H95.4346ZM106.03 62.6284V60.31H101.839V62.3334C101.839 62.5336 101.934 62.6284 102.135 62.6284H106.03Z" fill="#323333"/>
<path d="M128.672 53.428H138.42V55.7043H119.293V61.4687C119.293 64.5563 119.082 67.1487 118.648 69.2563C118.245 71.2375 117.547 73.1555 116.552 74.9996L114.371 73.1238C115.811 70.1626 116.531 66.274 116.531 61.4687V53.428H125.888V50.9727H128.682V53.428H128.672ZM129.402 59.2767H137.383V61.5003H129.402V64.9462H136.568V75.0102H133.826V73.5454H123.453V75.0102H120.733V64.9462H126.703V56.2417H129.391V59.2767H129.402ZM123.464 67.1382V71.3113H133.837V67.1382H123.464Z" fill="#323333"/>
<path d="M147.799 61.2585V75.0002H145.258V64.5991C144.771 65.1576 144.221 65.7372 143.607 66.3378L142.422 63.9141C144.56 61.7538 146.306 59.3089 147.682 56.6006L149.768 57.7809C149.524 58.2972 149.291 58.7609 149.069 59.1508H153.377V56.3371H149.672V54.0609H153.377V50.9521H155.875V54.0609H159.294V56.3371H155.875V59.1508H159.802V61.3955H148.995V59.2668C148.677 59.8674 148.275 60.5208 147.809 61.2268L147.799 61.2585ZM142.411 56.4531C144.285 54.8934 145.809 53.0598 146.984 50.9732L149.291 52.1113C147.661 54.7775 145.809 56.9167 143.724 58.5291L142.411 56.4531ZM153.367 64.7044V62.1753H155.886V64.7044H159.569V66.9491H155.886V69.963C155.992 69.9419 156.108 69.9314 156.235 69.9103C157.389 69.71 158.712 69.4571 160.183 69.141L160.257 71.2381C157.325 72.039 153.568 72.745 149.005 73.3668L148.212 71.0484C150.265 70.8376 151.98 70.6163 153.377 70.3845V66.9491H149.334V64.7044H153.377H153.367ZM164.798 61.1847V72.745C164.798 73.4827 164.608 74.0096 164.227 74.3258C163.867 74.6419 163.253 74.8 162.396 74.8C161.538 74.8 160.691 74.7684 159.823 74.7051L159.241 72.3867C160.183 72.5027 160.977 72.5554 161.612 72.5554C161.919 72.5554 162.099 72.4921 162.142 72.3657C162.184 72.2814 162.205 72.1444 162.205 71.9441V61.1847H160.501V58.7188H167V61.1847H164.788H164.798ZM161.009 52.1851H166.323V54.6194H161.009V52.1851Z" fill="#323333"/>
<path d="M47.7279 8.6202C47.7702 8.70451 47.7702 8.82043 47.7702 8.94688C48.543 18.8633 55.8572 27.4835 62.6528 29.9916C63.796 30.392 64.2405 31.1613 64.2405 31.9727C64.2405 33.1846 63.182 34.4387 61.552 34.4387C58.1012 34.4387 49.5168 27.0725 45.9814 17.8411C43.7056 24.8489 39.1117 31.077 31.3423 34.681C30.9401 34.8813 30.5272 34.9656 30.1673 34.9656C28.823 34.9656 27.8069 33.8696 27.8069 32.742C27.8069 31.9727 28.2515 31.2456 29.31 30.7609C43.1763 24.6066 43.5362 10.4011 43.5362 7.36616C43.5362 6.15428 43.4516 4.77378 43.3775 3.56189V3.43543C43.3775 2.09709 44.5206 1.41211 45.6532 1.41211C46.7858 1.41211 47.8867 2.09709 47.8867 3.56189C47.8867 5.02669 47.8443 6.72334 47.7279 8.46213V8.6202Z" fill="#6AC3F3"/>
<path d="M30.1674 36.3779C28.1245 36.3779 26.3885 34.7129 26.3885 32.7422C26.3885 31.3512 27.2354 30.1604 28.7173 29.4754C40.8159 24.101 42.1179 12.2245 42.1179 7.36637C42.1179 6.19664 42.0332 4.83721 41.9591 3.65694V3.44618C41.9591 1.48608 43.5469 0.0107422 45.6533 0.0107422C47.421 0.0107422 49.3051 1.25424 49.3051 3.57264C49.3051 4.75291 49.2734 6.54439 49.1464 8.46234C49.1781 8.63095 49.1781 8.77848 49.1781 8.8944C49.9402 18.326 56.8628 26.3561 63.1292 28.6745C64.6958 29.233 65.6378 30.466 65.6378 31.9835C65.6378 33.8487 64.0713 35.8615 61.5308 35.8615C57.5615 35.8615 50.1837 29.4227 46.0661 21.5296C43.1658 28.0528 38.3179 33.0057 31.9245 35.9774C31.3953 36.2409 30.7602 36.3884 30.1462 36.3884L30.1674 36.3779Z" fill="#6AC3F3"/>
<path d="M84.2568 38.2646C83.2301 38.2646 82.2245 37.7904 81.5788 36.9052C72.8674 24.9654 59.3714 18.1262 44.5524 18.1262C29.7334 18.1262 16.2375 24.976 7.52598 36.9052C6.4463 38.3805 4.38222 38.7072 2.90032 37.6323C1.41841 36.5574 1.09028 34.5025 2.16995 33.0271C12.141 19.3697 27.5846 11.5293 44.5524 11.5293C61.5202 11.5293 76.9638 19.3697 86.9349 33.0271C88.0145 34.5025 87.6864 36.5574 86.2045 37.6323C85.6117 38.0538 84.9343 38.2646 84.2568 38.2646Z" fill="#6AC3F3"/>
<path d="M163.666 38.2646C162.639 38.2646 161.633 37.7904 160.988 36.9052C152.276 24.9654 138.78 18.1262 123.961 18.1262C109.142 18.1262 95.7946 24.9022 87.0725 36.7155C86.0987 38.0433 84.3204 38.665 82.8385 37.9484C80.9226 37.0211 80.3828 34.6605 81.5789 33.0271C91.55 19.3591 106.994 11.5293 123.961 11.5293C140.929 11.5293 156.299 19.3275 166.27 32.9323C167.328 34.376 167.116 36.4836 165.688 37.5796C165.084 38.0433 164.364 38.2646 163.666 38.2646Z" fill="#F49F4A"/>
<path d="M125.02 8.6202C125.062 8.70451 125.062 8.82043 125.062 8.94688C125.835 18.8633 133.149 27.4835 139.945 29.9916C141.088 30.392 141.533 31.1613 141.533 31.9727C141.533 33.1846 140.474 34.4387 138.844 34.4387C135.393 34.4387 126.809 27.0725 123.273 17.8411C120.998 24.8489 116.404 31.077 108.634 34.681C108.232 34.8813 107.819 34.9656 107.459 34.9656C106.115 34.9656 105.099 33.8696 105.099 32.742C105.099 31.9727 105.543 31.2456 106.602 30.7609C120.468 24.6066 120.828 10.4011 120.828 7.36616C120.828 6.15428 120.744 4.77378 120.669 3.56189V3.43543C120.669 2.09709 121.813 1.41211 122.945 1.41211C124.078 1.41211 125.179 2.09709 125.179 3.56189C125.179 5.02669 125.136 6.72334 125.02 8.46213V8.6202Z" fill="#F49F4A"/>
<path d="M107.459 36.3779C105.416 36.3779 103.68 34.7129 103.68 32.7422C103.68 31.3512 104.527 30.1604 106.009 29.4754C118.108 24.101 119.41 12.2245 119.41 7.36637C119.41 6.19664 119.325 4.83721 119.251 3.65694V3.44618C119.251 1.48608 120.839 0.0107422 122.945 0.0107422C124.713 0.0107422 126.597 1.25424 126.597 3.57264C126.597 4.75291 126.565 6.54439 126.438 8.46234C126.47 8.63095 126.47 8.77848 126.47 8.8944C127.232 18.326 134.155 26.3561 140.421 28.6745C141.988 29.233 142.93 30.466 142.93 31.9835C142.93 33.8487 141.363 35.8615 138.823 35.8615C134.853 35.8615 127.476 29.4227 123.358 21.5296C120.458 28.0528 115.61 33.0057 109.216 35.9774C108.687 36.2409 108.052 36.3884 107.438 36.3884L107.459 36.3779Z" fill="#F49F4A"/>
<path d="M84.0664 38.2436C84.1299 38.2436 84.1934 38.2647 84.2569 38.2647C84.9344 38.2647 85.6118 38.0644 86.2046 37.6324C86.5116 37.4111 86.755 37.1371 86.9561 36.8525C86.2363 37.7377 85.1567 38.2752 84.0664 38.2436Z" fill="#6AC3F3"/>
<path d="M81.5789 36.905C81.5789 36.905 81.6107 36.9366 81.6212 36.9471C80.7639 35.8195 80.7003 34.2283 81.5789 33.0269C82.4257 31.8677 83.336 30.7612 84.2569 29.6758" fill="#6AC3F3"/>
<path d="M83.6642 38.2015C83.6007 38.191 83.5371 38.191 83.4736 38.1699C83.5371 38.1805 83.6007 38.191 83.6642 38.2015Z" fill="#6AC3F3"/>
<path d="M82.1611 37.5159C82.087 37.4632 82.0341 37.3894 81.9706 37.3262C82.0341 37.3894 82.087 37.4526 82.1611 37.5159Z" fill="#6AC3F3"/>
<path d="M82.7962 37.9274C82.7009 37.8747 82.6163 37.8115 82.521 37.7588C82.6163 37.8115 82.7009 37.8852 82.7962 37.9274Z" fill="#6AC3F3"/>
<g style="mix-blend-mode:multiply">
<path d="M84.0664 38.2433C83.9288 38.2433 83.7912 38.2222 83.6642 38.2012C83.8018 38.2222 83.9288 38.2433 84.0664 38.2433Z" fill="#F49F4A"/>
</g>
<g style="mix-blend-mode:multiply">
<path d="M81.9705 37.3266C81.8435 37.2107 81.7271 37.0948 81.6212 36.9473C81.7271 37.0843 81.8435 37.2002 81.9705 37.3266Z" fill="#F49F4A"/>
</g>
<g style="mix-blend-mode:multiply">
<path d="M82.8385 37.9478C83.0396 38.0427 83.2619 38.1164 83.4736 38.1691C83.2407 38.1164 83.0185 38.0321 82.8068 37.9268C82.8173 37.9268 82.8279 37.9478 82.8385 37.9478Z" fill="#F49F4A"/>
</g>
<path d="M84.257 29.6865C85.1884 30.7614 86.0882 31.8679 86.935 33.0377C87.7924 34.2074 87.75 35.7354 86.9561 36.863C86.9985 36.8208 87.0408 36.7787 87.0726 36.726" fill="#F49F4A"/>
<path d="M86.9349 33.0269C86.0881 31.8677 85.1778 30.7612 84.2569 29.6758C83.3254 30.7507 82.4257 31.8572 81.5789 33.0269C80.7003 34.2283 80.7639 35.8195 81.6212 36.9471C81.7271 37.0841 81.8541 37.2 81.9705 37.3265C82.0341 37.3897 82.087 37.4529 82.1611 37.5162C82.2775 37.611 82.4045 37.6848 82.5316 37.7585C82.6268 37.8112 82.7009 37.885 82.8068 37.9272C83.0185 38.0325 83.2408 38.1063 83.4736 38.1695C83.5371 38.1801 83.6006 38.1906 83.6642 38.2011C83.8018 38.2222 83.9288 38.2433 84.0664 38.2433C85.1566 38.2749 86.2363 37.7375 86.9561 36.8523C87.7394 35.7352 87.7923 34.1966 86.9349 33.0269Z" fill="#6AC3F3"/>
<g style="mix-blend-mode:multiply">
<path d="M86.9349 33.0269C86.0881 31.8677 85.1778 30.7612 84.2569 29.6758C83.3254 30.7507 82.4257 31.8572 81.5789 33.0269C80.7003 34.2283 80.7639 35.8195 81.6212 36.9471C81.7271 37.0841 81.8541 37.2 81.9705 37.3265C82.0341 37.3897 82.087 37.4529 82.1611 37.5162C82.2775 37.611 82.4045 37.6848 82.5316 37.7585C82.6268 37.8112 82.7009 37.885 82.8068 37.9272C83.0185 38.0325 83.2408 38.1063 83.4736 38.1695C83.5371 38.1801 83.6006 38.1906 83.6642 38.2011C83.8018 38.2222 83.9288 38.2433 84.0664 38.2433C85.1566 38.2749 86.2363 37.7375 86.9561 36.8523C87.7394 35.7352 87.7923 34.1966 86.9349 33.0269Z" fill="#F49F4A"/>
</g>
</g>
<defs>
<clipPath id="clip0_255_203">
<rect width="167" height="75" fill="white"/>
</clipPath>
</defs>
</svg>
